<?xml version="1.0" encoding="UTF-8"?>
<svg width="28px" height="20px" viewBox="0 0 28 20" version="1.1" xmlns="http://www.w3.org/2000/svg" xmlns:xlink="http://www.w3.org/1999/xlink">
    <!-- Generator: Sketch 60.1 (88133) - https://sketch.com -->
    <title>Camera</title>
    <desc>Created with Sketch.</desc>
    <g id="Design-2" stroke="none" stroke-width="1" fill="none" fill-rule="evenodd">
        <g id="Deep_Lens_Surveillance-Design-2" transform="translate(-17.000000, -198.000000)" fill="#FFFFFF" fill-rule="nonzero">
            <g id="noun_CCTV_2073141" transform="translate(0.000000, 182.000000)">
                <g id="Camera" transform="translate(17.000000, 16.000000)">
                    <path d="M26.5714286,0.228571429 L0.857142857,0.228571429 C0.457142857,0.228571429 0.142857143,0.542857143 0.142857143,0.942857143 L0.142857143,4.25714286 C0.142857143,4.65714286 0.457142857,4.97142857 0.857142857,4.97142857 L26.5714286,4.97142857 C26.9714286,4.97142857 27.2857143,4.65714286 27.2857143,4.25714286 L27.2857143,0.942857143 C27.2857143,0.542857143 26.9714286,0.228571429 26.5714286,0.228571429 Z" id="Path"></path>
                    <path d="M2.51428571,8.57142857 C2.51428571,14.7428571 7.57142857,19.7714286 13.7142857,19.7714286 C19.8857143,19.7714286 24.9142857,14.7428571 24.9142857,8.57142857 L24.9142857,6.74285714 L2.51428571,6.74285714 L2.51428571,8.57142857 Z M13.7142857,9.65714286 C15.6,9.65714286 17.1142857,11.1714286 17.1142857,13.0571429 C17.1142857,14.9428571 15.5714286,16.4571429 13.7142857,16.4571429 C11.8285714,16.4571429 10.3142857,14.9428571 10.3142857,13.0571429 C10.3142857,11.1714286 11.8285714,9.65714286 13.7142857,9.65714286 Z" id="Shape"></path>
                    <path d="M13.7142857,15.2571429 C14.9428571,15.2571429 15.9142857,14.2571429 15.9142857,13.0571429 C15.9142857,12.8 15.8571429,12.5714286 15.8,12.3428571 C15.6285714,12.5142857 15.3714286,12.6571429 15.0857143,12.6571429 C14.5428571,12.6571429 14.1142857,12.2285714 14.1142857,11.6857143 C14.1142857,11.4 14.2285714,11.1714286 14.4285714,10.9714286 C14.2,10.8857143 13.9714286,10.8571429 13.7142857,10.8571429 C12.4857143,10.8571429 11.5142857,11.8571429 11.5142857,13.0571429 C11.5142857,14.2571429 12.4857143,15.2571429 13.7142857,15.2571429 Z" id="Path"></path>
                </g>
            </g>
        </g>
    </g>
</svg>